<?xml version="1.0" encoding="utf-8"?>
<!-- Generator: Adobe Illustrator 19.0.0, SVG Export Plug-In . SVG Version: 6.00 Build 0)  -->
<svg version="1.1" id="Layer_1" xmlns="http://www.w3.org/2000/svg" xmlns:xlink="http://www.w3.org/1999/xlink" x="0px" y="0px"
	 viewBox="-320 248.3 200 100" style="enable-background:new -320 248.3 200 100;" xml:space="preserve">
<style type="text/css">
	.st0{display:none;fill:none;}
</style>
<symbol  id="New_Symbol_1_1_" viewBox="-148 -36.7 296 74">
	<path id="XMLID_34_" d="M-20.5-34.7h-14l-14.9,28H-61v-28h-14v42h14.3h1h2.8h14h1.2c4,0,7,3.1,7,7s-3,7-7,7h-18h-1H-75v14h14.3h19
		c11,0,21-9.6,21-21.1c0-9.5-6.7-17.5-15.2-20L-20.5-34.7z"/>
	<path id="XMLID_33_" d="M-120,35v0.3h-13.7H-148v-14h14.3h3h10c12,0,21-9.4,21-21s-9-21-21-21H-134v28h-14v-42h14.3h13.7V-35
		c19,0.5,34,16,34,35S-101,34.5-120,35z"/>
	<g id="XMLID_30_">
		<polygon id="XMLID_32_" points="16.6,8.4 12.1,-8.4 0.6,35.3 -13.4,35.3 5.1,-34.7 19.1,-34.7 23.6,-17.9 		"/>
		<polygon id="XMLID_31_" points="60.6,35.3 49.1,-8.2 37.6,35.3 23.6,35.3 23.6,35.1 30.6,8.5 30.6,8.7 42.1,-34.7 56.1,-34.7 
			74.6,35.3 		"/>
	</g>
	<g id="XMLID_27_">
		<path id="XMLID_29_" d="M94.3,7.3c2.6,9,10.4,16,19.5,16s16.9-7,19.5-16h14.3c-3.1,17-17.1,30-33.9,30s-30.8-13-33.9-30H94.3z"/>
		<path id="XMLID_28_" d="M133.3-6.7c-2.6-10-10.4-16-19.5-16s-16.9,6-19.5,16H79.9c3.1-17,17.1-30,33.9-30s30.8,13,33.9,30H133.3z"
			/>
	</g>
	<polygon class="st0" points="-148,37.3 148,37.3 148,-36.7 -148,-36.7 	"/>
</symbol>
<use xlink:href="#New_Symbol_1_1_"  width="296" height="74" x="-148" y="-36.7" transform="matrix(0.5 0 0 -0.5 -220 298.42)" style="overflow:visible;"/>
</svg>
