<?xml version="1.0" encoding="utf-8"?>
<!-- Generator: Adobe Illustrator 19.0.0, SVG Export Plug-In . SVG Version: 6.00 Build 0)  -->
<svg version="1.1" id="Layer_1" xmlns="http://www.w3.org/2000/svg" xmlns:xlink="http://www.w3.org/1999/xlink" x="0px" y="0px"
	 viewBox="-4 6 250 250" style="enable-background:new -4 6 250 250;" xml:space="preserve">
<style type="text/css">
	.st0{fill:#333333;}
</style>
<g id="New_Symbol_1">
	<path id="XMLID_11_" class="st0" d="M121,89.7c-22.8,0-41.3,18.5-41.3,41.4c0,22.8,18.5,41.3,41.3,41.3s41.3-18.5,41.3-41.4
		C162.3,108.2,143.8,89.7,121,89.7z M121,167c-19.9,0-36-16.1-36-36c0-19.9,16.1-36,36-36s36,16.1,36,36
		C157,150.9,140.9,167,121,167z"/>
	<path id="XMLID_10_" class="st0" d="M110,136.3c0.6,0.3,1.2,0,1.3-0.6c0.1-0.5,0.4-1.6,0.5-2.1c0.2-0.6,0.1-0.9-0.4-1.5
		c-1-1.3-1.7-2.9-1.7-5.1c0-6.6,5-12.5,12.8-12.5c7,0,10.8,4.3,10.8,10c0,7.5-3.3,13.9-8.3,13.9c-2.8,0-4.8-2.3-4.1-5
		c0.8-3.3,2.3-6.9,2.3-9.3c0-2.1-1.2-3.9-3.5-3.9c-2.8,0-5,2.9-5,6.8c0,2.5,0.8,4.1,0.8,4.1s-2.8,12.1-3.3,14.2
		c-1,4.2-0.2,9.4-0.1,9.9c0,0.3,0.5,0.4,0.6,0.2c0.3-0.3,3.6-4.5,4.7-8.5c0.3-1.2,1.8-7.1,1.8-7.1c0.9,1.8,3.5,3.3,6.3,3.3
		c8.4,0,14-7.6,14-17.9c0-7.8-6.5-15-16.5-15c-12.4,0-18.6,8.9-18.6,16.3C104.7,130.8,106.4,134.8,110,136.3z"/>
</g>
</svg>
