<?xml version="1.0" encoding="utf-8"?>
<!-- Generator: Adobe Illustrator 19.0.0, SVG Export Plug-In . SVG Version: 6.00 Build 0)  -->
<svg version="1.1" id="Layer_1" xmlns="http://www.w3.org/2000/svg" xmlns:xlink="http://www.w3.org/1999/xlink" x="0px" y="0px"
	 viewBox="-4 6 250 250" style="enable-background:new -4 6 250 250;" xml:space="preserve">
<style type="text/css">
	.st0{fill:#333333;}
</style>
<g id="XMLID_1_">
	<path id="XMLID_3_" class="st0" d="M121,89.7c-22.8,0-41.3,18.5-41.3,41.4c0,22.8,18.5,41.3,41.3,41.3s41.3-18.5,41.3-41.4
		C162.3,108.2,143.8,89.7,121,89.7z M121,167c-19.9,0-36-16.1-36-36c0-19.9,16.1-36,36-36s36,16.1,36,36
		C157,150.9,140.9,167,121,167z"/>
	<path id="XMLID_6_" class="st0" d="M139,122.8c0.3,2.3,0.2,4.6-0.3,6.7c-0.8,3.5-2.5,6.6-4.8,9.4c-4.5,5.6-11.3,8.7-18.5,8.7
		c-4.7,0-9.1-1.4-12.8-3.8c4.5,0.5,8.8-0.7,12.3-3.5c-3.7,0-6.8-2.5-7.8-5.8c1.3,0.3,2.6,0.2,3.8-0.1c-4-0.8-6.8-4.4-6.7-8.3
		c1.2,0.6,2.4,1,3.8,1c-3.7-2.5-4.8-7.4-2.6-11.1c4.1,5,10.3,8.4,17.2,8.7c-1.2-5.2,2.8-10.3,8.2-10.3
		C136,114.5,138.4,118.4,139,122.8z"/>
</g>
</svg>
