<?xml version="1.0" encoding="utf-8"?>
<!-- Generator: Adobe Illustrator 19.0.0, SVG Export Plug-In . SVG Version: 6.00 Build 0)  -->
<svg version="1.1" id="Layer_1" xmlns="http://www.w3.org/2000/svg" xmlns:xlink="http://www.w3.org/1999/xlink" x="0px" y="0px"
	 viewBox="-4 6 250 250" style="enable-background:new -4 6 250 250;" xml:space="preserve">
<style type="text/css">
	.st0{fill:#333333;}
</style>
<g id="New_Symbol">
	<path class="st0" d="M121,89.7c-22.8,0-41.3,18.5-41.3,41.4c0,22.8,18.5,41.3,41.3,41.3s41.3-18.5,41.3-41.4
		C162.3,108.2,143.8,89.7,121,89.7z M121,167c-19.9,0-36-16.1-36-36c0-19.9,16.1-36,36-36s36,16.1,36,36
		C157,150.9,140.9,167,121,167z"/>
	<polygon class="st0" points="135.3,126.9 138,126.9 138,121.6 143.3,121.6 143.3,118.9 138,118.9 138,113.5 135.3,113.5 
		135.3,118.9 130,118.9 130,121.6 135.3,121.6 	"/>
	<path class="st0" d="M115.3,152.7c9.3,0,13-4.9,13-9c0-3.3-1.3-5.5-5-8.2c-3.8-2.8-4.7-4.3-1.1-7c2-1.5,3.5-3.6,3.5-6.2
		c0-2.8-1.2-5.4-3.3-6.6h3l2.6-2.8c0,0-9.8,0-11.7,0c-7.3,0-10.8,4.4-10.8,9.1c0,4.9,3.3,8.8,9.9,8.8c-1,2-0.6,4,1,5.3
		c-11.2,0-13.6,4.9-13.6,8.7C102.8,149.8,108.5,152.7,115.3,152.7z M109.8,122c-0.5-4.1,1.5-7.3,4.7-7.2c3.2,0.1,5.8,3.5,6.3,7.6
		s-1.3,6.8-4.4,6.7S110.4,126.2,109.8,122z M115.8,137.6c5.2,0,8.3,3.3,8.3,6.6c0,3.5-2.9,6.3-8.8,6.3c-4.7,0-8-3-8-6.5
		C107.3,140.5,111.2,137.5,115.8,137.6z"/>
</g>
</svg>
