<?xml version="1.0" encoding="utf-8"?>
<!-- Generator: Adobe Illustrator 19.0.0, SVG Export Plug-In . SVG Version: 6.00 Build 0)  -->
<svg version="1.1" id="Layer_1" xmlns="http://www.w3.org/2000/svg" xmlns:xlink="http://www.w3.org/1999/xlink" x="0px" y="0px"
	 viewBox="-4 6 250 250" style="enable-background:new -4 6 250 250;" xml:space="preserve">
<style type="text/css">
	.st0{fill:#333333;}
</style>
<g id="New_Symbol">
	<path id="XMLID_13_" class="st0" d="M121,89.7c-22.8,0-41.3,18.5-41.3,41.4c0,22.8,18.5,41.3,41.3,41.3s41.3-18.5,41.3-41.4
		C162.3,108.2,143.8,89.7,121,89.7z M121,167c-19.9,0-36-16.1-36-36c0-19.9,16.1-36,36-36s36,16.1,36,36
		C157,150.9,140.9,167,121,167z"/>
	<path id="XMLID_10_" class="st0" d="M121.4,120.8c2.9,0,5.5,1.2,7.4,3.1h12.9v-5.3l0,0c0-4.4-3.6-8-8-8h-21.9v10.1h-1.7v-10.1h-1
		c0,0-0.1,0-0.2,0v10.1h-1.7v-9.9c-0.4,0.1-0.8,0.2-1.2,0.4v9.5h-1.7v-8.6c-2,1.5-3.4,3.9-3.4,6.5v5.3H114
		C115.9,122,118.5,120.8,121.4,120.8z M131.1,115.3c0-0.7,0.5-1.3,1.3-1.3h4.3c0.7,0,1.3,0.5,1.3,1.3v4.5c0,0.7-0.6,1.3-1.3,1.3
		h-4.3c-0.7,0-1.3-0.5-1.3-1.3V115.3z"/>
	<path id="XMLID_7_" class="st0" d="M126.7,125.2c-0.6-0.5-1.3-1-2-1.3c-1-0.5-2.1-0.7-3.3-0.7c-1.2,0-2.3,0.3-3.3,0.7
		c-0.7,0.4-1.4,0.8-2,1.3c-1.7,1.5-2.8,3.6-2.8,6c0,4.4,3.6,8,8,8s8-3.6,8-8C129.4,128.8,128.3,126.7,126.7,125.2z M121.4,137.1
		c-3.3,0-5.9-2.6-5.9-5.9s2.7-5.9,5.9-5.9s5.9,2.6,5.9,5.9S124.7,137.1,121.4,137.1z"/>
	<path id="XMLID_6_" class="st0" d="M109.2,151.3h24.5c4.4,0,8-3.6,8-8v-18.1h-11.8c1.2,1.7,1.9,3.8,1.9,6c0,5.7-4.7,10.4-10.3,10.4
		c-5.7,0-10.3-4.6-10.3-10.4c0-2.3,0.7-4.3,1.9-6h-11.7v18.1C101.2,147.8,104.8,151.3,109.2,151.3z"/>
</g>
</svg>
