<?xml version="1.0" encoding="utf-8"?>
<!-- Generator: Adobe Illustrator 19.0.0, SVG Export Plug-In . SVG Version: 6.00 Build 0)  -->
<svg version="1.1" id="Layer_1" xmlns="http://www.w3.org/2000/svg" xmlns:xlink="http://www.w3.org/1999/xlink" x="0px" y="0px"
	 viewBox="-4 6 250 250" style="enable-background:new -4 6 250 250;" xml:space="preserve">
<style type="text/css">
	.st0{fill:#333333;}
</style>
<g id="New_Symbol_2">
	<path id="XMLID_26_" class="st0" d="M121,89.7c-22.8,0-41.3,18.5-41.3,41.4c0,22.8,18.5,41.3,41.3,41.3s41.3-18.5,41.3-41.4
		C162.3,108.2,143.8,89.7,121,89.7z M121,167c-19.9,0-36-16.1-36-36c0-19.9,16.1-36,36-36s36,16.1,36,36
		C157,150.9,140.9,167,121,167z"/>
	<rect id="XMLID_25_" x="103.5" y="122.9" class="st0" width="7.9" height="25.6"/>
	<ellipse id="XMLID_24_" class="st0" cx="107.3" cy="114.8" rx="4.7" ry="4.7"/>
	<path id="XMLID_23_" class="st0" d="M124,135c0-3.6,1.7-5.8,4.8-5.8c2.9,0,4.3,2,4.3,5.8s0,13.4,0,13.4h7.8c0,0,0-9.4,0-16.1
		c0-6.9-3.9-10.1-9.3-10.1c-5.4,0-7.7,4.2-7.7,4.2v-3.5h-7.6v25.5h7.6C124,148.4,124,139,124,135z"/>
</g>
</svg>
